<?xml version="1.0" standalone="no"?>
<!DOCTYPE svg PUBLIC "-//W3C//DTD SVG 20010904//EN"
        "http://www.w3.org/TR/2001/REC-SVG-20010904/DTD/svg10.dtd">
<svg version="1.0" xmlns="http://www.w3.org/2000/svg"
     width="211.000000pt" height="211.000000pt" viewBox="0 0 211.000000 211.000000"
     preserveAspectRatio="xMidYMid meet">
    <metadata>
        Created by potrace 1.14, written by Peter Selinger 2001-2017
    </metadata>
    <g transform="translate(0.000000,211.000000) scale(0.100000,-0.100000)"
       fill="#000000" stroke="none">
        <path d="M0 1055 l0 -1055 1055 0 1055 0 0 1055 0 1055 -1055 0 -1055 0 0
-1055z m1170 875 c127 -14 197 -33 308 -87 174 -85 304 -238 371 -439 37 -112
51 -212 51 -370 0 -147 -12 -237 -47 -354 -76 -259 -254 -452 -483 -524 -126
-40 -207 -46 -656 -46 l-424 0 0 915 0 915 393 0 c215 0 435 -5 487 -10z"/>
        <path d="M690 1025 l0 -575 213 0 c175 0 224 3 278 18 125 35 201 97 259 212
45 88 60 167 60 311 0 227 -47 383 -146 482 -100 100 -202 127 -476 127 l-188
0 0 -575z"/>
    </g>
</svg>
